<svg width="42" height="42" viewBox="0 0 42 42" fill="none" xmlns="http://www.w3.org/2000/svg">
<path fill-rule="evenodd" clip-rule="evenodd" d="M14.4598 10.4999C15.3195 10.4839 16.178 10.5721 17.0166 10.7624C17.7226 10.9165 18.3929 11.2034 18.9919 11.6076C19.5451 12.0096 19.9828 12.5501 20.2611 13.1748C20.5809 13.9429 20.7352 14.7698 20.7139 15.6016C20.7502 16.5149 20.5169 17.4187 20.0432 18.2003C19.5448 18.9386 18.8559 19.5282 18.0495 19.9066C19.1438 20.2016 20.0969 20.8773 20.7375 21.8123C21.3524 22.803 21.6615 23.953 21.6261 25.1185C21.6463 26.0477 21.4542 26.9694 21.0643 27.8131C20.7039 28.5491 20.1762 29.1905 19.5234 29.686C18.8514 30.1761 18.0951 30.5386 17.2922 30.7557C16.4595 30.986 15.5994 31.1017 14.7354 31.0996H5.25V10.4999H14.4598ZM13.9125 18.8316C14.588 18.8595 15.2529 18.6573 15.7986 18.2581C16.0599 18.0254 16.2631 17.7349 16.3921 17.4097C16.5211 17.0845 16.5723 16.7336 16.5414 16.3851C16.5589 15.9781 16.4779 15.5729 16.3052 15.2039C16.1587 14.9101 15.9309 14.6646 15.6489 14.4964C15.3633 14.3114 15.0424 14.1876 14.7066 14.1329C14.3421 14.0623 13.9713 14.0302 13.6001 14.0371H9.54713V18.85H13.9125V18.8316ZM14.1488 27.6018C14.5573 27.6073 14.9649 27.5632 15.3628 27.4705C15.7264 27.3902 16.0713 27.241 16.3787 27.0308C16.6799 26.8208 16.9232 26.5382 17.0861 26.2092C17.2751 25.7897 17.3619 25.3313 17.3394 24.8718C17.3804 24.453 17.3249 24.0303 17.1773 23.6363C17.0296 23.2423 16.7937 22.8873 16.4876 22.5985C15.8389 22.1207 15.0438 21.884 14.2393 21.9291H9.54713V27.6018H14.1488Z" fill="white"/>
<path fill-rule="evenodd" clip-rule="evenodd" d="M27.7463 27.5256C28.0835 27.8382 28.4808 28.079 28.914 28.2334C29.3472 28.3877 29.8073 28.4523 30.2663 28.4234C30.9939 28.4418 31.7073 28.2204 32.2967 27.7934C32.7762 27.4816 33.1393 27.0202 33.3296 26.4809H36.7566C36.3914 28.0163 35.4998 29.3752 34.2366 30.3213C33.0248 31.1256 31.5927 31.5329 30.1389 31.4868C29.1014 31.5004 28.0717 31.3053 27.111 30.9132C26.242 30.5508 25.4626 30.003 24.8273 29.308C24.1943 28.5798 23.7081 27.7362 23.3953 26.8234C23.0442 25.8032 22.8724 24.73 22.8874 23.6511C22.881 22.5904 23.0586 21.5366 23.4124 20.5366C23.8877 19.1297 24.7964 17.9096 26.0082 17.0513C27.2199 16.193 28.6725 15.7406 30.1573 15.7591C31.2536 15.7362 32.3376 15.9927 33.3073 16.5046C34.1838 16.9852 34.94 17.6583 35.5189 18.4733C36.111 19.3285 36.5355 20.2883 36.7697 21.3018C37.0265 22.39 37.1181 23.5108 37.0414 24.6263H26.8341C26.7514 25.6744 27.0784 26.7137 27.7463 27.5256ZM32.2245 19.6913C31.9389 19.4056 31.5953 19.1844 31.217 19.0427C30.8387 18.901 30.4344 18.842 30.0313 18.8697C29.4966 18.8493 28.9657 18.9678 28.4905 19.2136C28.1136 19.421 27.781 19.7001 27.5113 20.0352C27.2723 20.3494 27.0942 20.7055 26.9863 21.0852C26.8891 21.4019 26.8283 21.7286 26.8052 22.0591H33.1275C33.0724 21.1976 32.7586 20.3728 32.2271 19.6926L32.2245 19.6913Z" fill="white"/>
<path d="M25.9901 11.8754H33.9124V13.9006H25.9901V11.8754Z" fill="white"/>
</svg>
