<svg width="42" height="42" viewBox="0 0 42 42" fill="none" xmlns="http://www.w3.org/2000/svg">
<path fill-rule="evenodd" clip-rule="evenodd" d="M21 5.25C12.3051 5.25 5.25 12.3051 5.25 21C5.25 29.6949 12.3051 36.75 21 36.75C29.6779 36.75 36.75 29.6949 36.75 21C36.75 12.3051 29.6779 5.25 21 5.25ZM31.4032 12.51C33.2823 14.7991 34.4097 17.7202 34.4439 20.8804C33.9997 20.795 29.5583 19.8897 25.0827 20.4533C24.9802 20.2313 24.8948 19.9921 24.7923 19.753C24.519 19.1039 24.2115 18.4376 23.904 17.8056C28.8579 15.7899 31.1128 12.8859 31.4032 12.51ZM21 7.57321C24.4165 7.57321 27.5426 8.85439 29.917 10.9555C29.6779 11.2972 27.6451 14.0133 22.862 15.8069C20.6583 11.7584 18.2156 8.44442 17.8398 7.93194C18.8476 7.69279 19.9067 7.57321 21 7.57321ZM15.2774 8.83731C15.6361 9.31561 18.0277 12.6467 20.2655 16.6098C13.9791 18.2839 8.42734 18.2497 7.82945 18.2497C8.70064 14.0816 11.5193 10.6139 15.2774 8.83731ZM7.53905 21.0171C7.53905 20.8804 7.53905 20.7438 7.53905 20.6071C8.11985 20.6242 14.6453 20.7096 21.3587 18.6939C21.7516 19.4455 22.1103 20.2142 22.452 20.9829C22.2812 21.0342 22.0933 21.0854 21.9224 21.1366C14.987 23.3745 11.2972 29.49 10.9897 30.0024C8.85439 27.628 7.53905 24.4677 7.53905 21.0171ZM21 34.461C17.891 34.461 15.0211 33.4018 12.7492 31.6253C12.9884 31.1299 15.7215 25.8685 23.3061 23.2207C23.3403 23.2036 23.3574 23.2036 23.3915 23.1865C25.2877 28.0892 26.0564 32.2061 26.2614 33.3848C24.6386 34.0851 22.862 34.461 21 34.461ZM28.4992 32.1548C28.3625 31.3349 27.6451 27.4059 25.8856 22.5716C30.1049 21.9054 33.7947 22.9986 34.256 23.1524C33.6752 26.8934 31.5228 30.122 28.4992 32.1548Z" fill="white"/>
</svg>
