<svg width="42" height="42" viewBox="0 0 42 42" fill="none" xmlns="http://www.w3.org/2000/svg">
<path d="M21.0006 5.72729C16.8529 5.72729 16.3324 5.74543 14.7033 5.81957C13.0775 5.89402 11.9677 6.15143 10.9966 6.52911C9.99215 6.9192 9.14008 7.44102 8.2912 8.29025C7.44168 9.13916 6.91988 9.99125 6.52853 10.9954C6.1499 11.9668 5.89218 13.077 5.819 14.7022C5.74614 16.3313 5.72705 16.8522 5.72705 21C5.72705 25.1478 5.74551 25.6668 5.81932 27.2959C5.89409 28.9218 6.15149 30.0316 6.52884 31.0027C6.91924 32.0072 7.44104 32.8593 8.29025 33.7082C9.13881 34.5577 9.99088 35.0808 10.9947 35.4709C11.9664 35.8486 13.0765 36.106 14.7021 36.1805C16.3311 36.2546 16.8513 36.2727 20.9987 36.2727C25.1467 36.2727 25.6656 36.2546 27.2947 36.1805C28.9205 36.106 30.0316 35.8486 31.0033 35.4709C32.0074 35.0808 32.8582 34.5577 33.7068 33.7082C34.5563 32.8593 35.0781 32.0072 35.4695 31.003C35.8449 30.0316 36.1026 28.9215 36.179 27.2962C36.2522 25.6671 36.2713 25.1478 36.2713 21C36.2713 16.8522 36.2522 16.3317 36.179 14.7026C36.1026 13.0767 35.8449 11.9668 35.4695 10.9957C35.0781 9.99125 34.5563 9.13916 33.7068 8.29025C32.8573 7.4407 32.0078 6.91889 31.0023 6.52911C30.0287 6.15143 28.9183 5.89402 27.2924 5.81957C25.6634 5.74543 25.1448 5.72729 20.9958 5.72729H21.0006ZM19.6305 8.47957C20.0372 8.47893 20.4909 8.47957 21.0006 8.47957C25.0783 8.47957 25.5616 8.4942 27.1719 8.56739C28.6609 8.63548 29.4691 8.88429 30.0074 9.09334C30.7201 9.37016 31.2282 9.70107 31.7624 10.2356C32.297 10.7702 32.6279 11.2792 32.9053 11.992C33.1144 12.5297 33.3635 13.3379 33.4313 14.827C33.5044 16.437 33.5203 16.9206 33.5203 20.9965C33.5203 25.0724 33.5044 25.5561 33.4313 27.1661C33.3632 28.6552 33.1144 29.4633 32.9053 30.0011C32.6285 30.7138 32.297 31.2213 31.7624 31.7555C31.2279 32.2901 30.7204 32.621 30.0074 32.8978C29.4697 33.1078 28.6609 33.356 27.1719 33.4241C25.5619 33.4972 25.0783 33.5132 21.0006 33.5132C16.9226 33.5132 16.4393 33.4972 14.8293 33.4241C13.3403 33.3553 12.5321 33.1065 11.9935 32.8975C11.2807 32.6207 10.7717 32.2897 10.2371 31.7552C9.70261 31.2207 9.37171 30.7128 9.09427 29.9998C8.88523 29.4621 8.6361 28.6539 8.56833 27.1648C8.49515 25.5548 8.48051 25.0712 8.48051 20.9927C8.48051 16.9142 8.49515 16.4332 8.56833 14.8232C8.63642 13.3341 8.88523 12.5259 9.09427 11.9875C9.37108 11.2748 9.70261 10.7657 10.2371 10.2312C10.7717 9.69661 11.2807 9.3657 11.9935 9.08825C12.5318 8.87825 13.3403 8.63007 14.8293 8.56166C16.2382 8.49802 16.7842 8.47893 19.6305 8.47575V8.47957ZM29.1528 11.0155C28.141 11.0155 27.3201 11.8354 27.3201 12.8476C27.3201 13.8594 28.141 14.6803 29.1528 14.6803C30.1646 14.6803 30.9855 13.8594 30.9855 12.8476C30.9855 11.8357 30.1646 11.0148 29.1528 11.0148V11.0155ZM21.0006 13.1568C16.6693 13.1568 13.1576 16.6686 13.1576 21C13.1576 25.3314 16.6693 28.8416 21.0006 28.8416C25.3319 28.8416 28.8423 25.3314 28.8423 21C28.8423 16.6686 25.3315 13.1568 21.0003 13.1568H21.0006ZM21.0006 15.9091C23.812 15.9091 26.0913 18.1882 26.0913 21C26.0913 23.8115 23.812 26.0909 21.0006 26.0909C18.1889 26.0909 15.9098 23.8115 15.9098 21C15.9098 18.1882 18.1889 15.9091 21.0006 15.9091Z" fill="url(#paint0_radial_1_174)"/>
<path d="M21.2735 6C17.1258 6 16.6053 6.01814 14.9763 6.09227C13.3504 6.16673 12.2406 6.42414 11.2696 6.80182C10.2651 7.19191 9.41303 7.71373 8.56415 8.56295C7.71463 9.41186 7.19283 10.264 6.80148 11.2681C6.42285 12.2395 6.16513 13.3497 6.09195 14.975C6.01909 16.604 6 17.1249 6 21.2727C6 25.4205 6.01845 25.9395 6.09227 27.5686C6.16704 29.1945 6.42444 30.3043 6.80179 31.2754C7.19219 32.2799 7.71399 33.132 8.56319 33.9809C9.41176 34.8305 10.2638 35.3535 11.2677 35.7436C12.2394 36.1213 13.3495 36.3787 14.975 36.4532C16.604 36.5273 17.1243 36.5455 21.2716 36.5455C25.4196 36.5455 25.9386 36.5273 27.5676 36.4532C29.1935 36.3787 30.3045 36.1213 31.2762 35.7436C32.2804 35.3535 33.1312 34.8305 33.9797 33.9809C34.8293 33.132 35.3511 32.2799 35.7424 31.2757C36.1179 30.3043 36.3756 29.1942 36.4519 27.5689C36.5251 25.9398 36.5442 25.4205 36.5442 21.2727C36.5442 17.1249 36.5251 16.6044 36.4519 14.9753C36.3756 13.3494 36.1179 12.2395 35.7424 11.2685C35.3511 10.264 34.8293 9.41186 33.9797 8.56295C33.1302 7.71341 32.2807 7.19159 31.2753 6.80182C30.3017 6.42414 29.1912 6.16673 27.5654 6.09227C25.9363 6.01814 25.4177 6 21.2688 6H21.2735ZM19.9035 8.75227C20.3101 8.75164 20.7638 8.75227 21.2735 8.75227C25.3512 8.75227 25.8345 8.76691 27.4448 8.84009C28.9338 8.90818 29.742 9.157 30.2804 9.36605C30.9931 9.64286 31.5012 9.97377 32.0354 10.5083C32.5699 11.0429 32.9008 11.552 33.1783 12.2647C33.3873 12.8024 33.6364 13.6106 33.7042 15.0997C33.7774 16.7097 33.7933 17.1933 33.7933 21.2692C33.7933 25.3451 33.7774 25.8288 33.7042 27.4388C33.6361 28.9279 33.3873 29.736 33.1783 30.2738C32.9015 30.9865 32.5699 31.494 32.0354 32.0282C31.5009 32.5628 30.9934 32.8937 30.2804 33.1705C29.7426 33.3805 28.9338 33.6287 27.4448 33.6968C25.8349 33.77 25.3512 33.7859 21.2735 33.7859C17.1955 33.7859 16.7122 33.77 15.1023 33.6968C13.6132 33.628 12.8051 33.3792 12.2664 33.1702C11.5537 32.8934 11.0446 32.5625 10.5101 32.0279C9.97556 31.4934 9.64466 30.9855 9.36722 30.2725C9.15818 29.7348 8.90905 28.9266 8.84128 27.4375C8.7681 25.8275 8.75346 25.3439 8.75346 21.2654C8.75346 17.187 8.7681 16.7059 8.84128 15.0959C8.90937 13.6068 9.15818 12.7986 9.36722 12.2602C9.64403 11.5475 9.97556 11.0384 10.5101 10.5039C11.0446 9.96932 11.5537 9.63841 12.2664 9.36095C12.8047 9.15095 13.6132 8.90277 15.1023 8.83436C16.5111 8.77073 17.0571 8.75164 19.9035 8.74845V8.75227ZM29.4257 11.2882C28.414 11.2882 27.5931 12.1081 27.5931 13.1203C27.5931 14.1321 28.414 14.953 29.4257 14.953C30.4375 14.953 31.2584 14.1321 31.2584 13.1203C31.2584 12.1085 30.4375 11.2875 29.4257 11.2875V11.2882ZM21.2735 13.4295C16.9423 13.4295 13.4306 16.9413 13.4306 21.2727C13.4306 25.6041 16.9423 29.1143 21.2735 29.1143C25.6048 29.1143 29.1152 25.6041 29.1152 21.2727C29.1152 16.9413 25.6045 13.4295 21.2732 13.4295H21.2735ZM21.2735 16.1818C24.0849 16.1818 26.3643 18.461 26.3643 21.2727C26.3643 24.0842 24.0849 26.3636 21.2735 26.3636C18.4618 26.3636 16.1828 24.0842 16.1828 21.2727C16.1828 18.461 18.4618 16.1818 21.2735 16.1818Z" fill="white"/>
<defs>
<radialGradient id="paint0_radial_1_174" cx="0" cy="0" r="1" gradientUnits="userSpaceOnUse" gradientTransform="translate(13.8404 38.6254) rotate(-90) scale(30.2728 28.1549)">
<stop stop-color="#FFDD55"/>
<stop offset="0.1" stop-color="#FFDD55"/>
<stop offset="0.5" stop-color="#FF543E"/>
<stop offset="1" stop-color="#C837AB"/>
</radialGradient>
</defs>
</svg>
