<svg width="42" height="42" viewBox="0 0 42 42" fill="none" xmlns="http://www.w3.org/2000/svg">
<path fill-rule="evenodd" clip-rule="evenodd" d="M34.6005 14.1554C34.6123 14.4614 34.6163 14.7673 34.6163 15.0734C34.6163 24.3522 28.0891 35.0641 16.153 35.0641C12.4865 35.0641 9.07715 33.8955 6.20459 31.9062C6.71237 31.9619 7.22806 32.0037 7.75166 32.0037C10.7917 32.0037 13.5917 30.8766 15.8128 28.9847C12.9732 28.943 10.5754 26.898 9.74848 24.1157C10.1455 24.1992 10.5543 24.2411 10.9724 24.2411C11.5619 24.2411 12.1343 24.1577 12.683 23.9908C9.71152 23.3508 7.47338 20.513 7.47338 17.1047C7.47338 17.063 7.47338 17.049 7.47338 17.0212C8.34913 17.5359 9.35147 17.8557 10.4158 17.8974C8.67224 16.6315 7.5261 14.4753 7.5261 12.0408C7.5261 10.761 7.84528 9.55062 8.40713 8.50727C11.6068 12.7641 16.3905 15.5604 21.7834 15.8525C21.6726 15.3378 21.6159 14.7954 21.6159 14.2528C21.6159 10.3716 24.5214 7.22754 28.1062 7.22754C29.9724 7.22754 31.658 8.07625 32.841 9.43956C34.3222 9.13351 35.7097 8.54928 36.9653 7.74242C36.4786 9.38396 35.4511 10.7609 34.1085 11.6234C35.4221 11.4565 36.6751 11.0811 37.8371 10.5247C36.9653 11.9297 35.8679 13.1676 34.6005 14.1554Z" fill="white"/>
</svg>
